<svg xmlns="http://www.w3.org/2000/svg" width="35.106" height="35.108" viewBox="0 0 35.106 35.108"><g transform="translate(-1469.06 -17.834)"><g transform="translate(-2641.94 377.834)"><path d="M37.439,12.283l7-7a2.509,2.509,0,0,0-3.548-3.548L30.33,12.283Z" transform="translate(4099.684 -360.998)" fill="#fff"/><path d="M32.315,54.94a.94.94,0,0,0-.94-.94H11.94a.94.94,0,0,0,0,1.881H31.374A.94.94,0,0,0,32.315,54.94Z" transform="translate(4106.896 -380.773)" fill="#fff"/><path d="M0,15.957a.94.94,0,0,0,.94.94H27.584a.627.627,0,1,1,0,1.254H2.508v4.388a13.165,13.165,0,0,0,7.567,11.911H25.032A13.165,13.165,0,0,0,32.6,22.539V18.151H30.091a.627.627,0,0,1,0-1.254h4.075a.94.94,0,1,0,0-1.881H12.538A13.754,13.754,0,0,0,10.99,9.155q4.8,1.73,6.639-3.222a.627.627,0,0,0-.5-.853,8.777,8.777,0,0,0-4.47.426c-1.693.733-2.633,3.241-2.633,3.241a7.7,7.7,0,0,0-2.551-.5,3.761,3.761,0,0,0-1.536.295A9.172,9.172,0,0,0,2.62,11.682a.627.627,0,0,0,.282.953c3.272,1.3,5.586.276,6.858-3.053a12.457,12.457,0,0,1,1.523,5.435H.94A.94.94,0,0,0,0,15.957ZM18.337,32.921a1.254,1.254,0,0,1-1.567,0C10.657,27.943,9.4,26.834,9.4,24.006c0-5.053,5.686-5.811,8.15-2.946,2.464-2.865,8.15-2.1,8.15,2.946C25.7,26.815,24.449,27.937,18.337,32.921Z" transform="translate(4111 -362.477)" fill="#fff"/></g></g></svg>