<svg xmlns="http://www.w3.org/2000/svg" width="63" height="63" viewBox="0 0 63 63"><g transform="translate(-1668 -1139)"><g transform="translate(40)"><rect width="63" height="63" transform="translate(1628 1139)" fill="#56d63d"/><g transform="translate(1645 1154.859)"><path d="M0,28.575,2.457,21.2A14.04,14.04,0,1,1,8,26.47Z" fill="none" stroke="#fff" stroke-width="3"/><path d="M17.58,13.788c-.648-1.225-3.039-2.626-3.039-2.626-.541-.308-1.194-.343-1.5.207a12.385,12.385,0,0,1-.975,1.066,1.816,1.816,0,0,1-2.583-.256L7.52,10.216,5.559,8.255A1.816,1.816,0,0,1,5.3,5.672,12.385,12.385,0,0,1,6.368,4.7c.55-.309.515-.961.207-1.5,0,0-1.4-2.391-2.626-3.039A1.343,1.343,0,0,0,2.371.394L1.5,1.26C-1.243,4.007.11,7.109,2.857,9.857l2.511,2.511L7.88,14.879c2.748,2.748,5.85,4.1,8.6,1.353l.866-.866A1.344,1.344,0,0,0,17.58,13.788Z" transform="translate(5.912 4.927)" fill="#fff"/></g></g></g></svg>