<svg xmlns="http://www.w3.org/2000/svg" width="24.095" height="34.708" viewBox="0 0 24.095 34.708"><g transform="translate(0.25 0.403)"><g transform="translate(4.931)"><path d="M1380.126,3189.485a5.323,5.323,0,0,1,.752,1.09,3.783,3.783,0,0,1,.446,1.351,2.387,2.387,0,0,1-.014.624.862.862,0,0,1-.616.705,1.651,1.651,0,0,1-1.032.022.987.987,0,0,1-.738-.977,3.408,3.408,0,0,1,.486-1.779c.178-.319.405-.611.612-.914A1.5,1.5,0,0,1,1380.126,3189.485Z" transform="translate(-1373.739 -3187.129)" fill="#fefefe" stroke="#fff" stroke-width="0.5"/><path d="M1340.413,3182.331a4.191,4.191,0,0,1-1.274-3.681,5.387,5.387,0,0,1,1.14.729c.271.222.53.458.791.692a.15.15,0,0,1,.052.115,3.092,3.092,0,0,0,.038,1.474l-.667-.526A4.423,4.423,0,0,0,1340.413,3182.331Z" transform="translate(-1337.053 -3177.155)" fill="#fefefe" stroke="#fff" stroke-width="0.5"/><path d="M1424.395,3182.347l-.069-1.2-.689.545-.024-.017.06-.291a2.624,2.624,0,0,0,0-1.131.151.151,0,0,1,.027-.12,7.648,7.648,0,0,1,1.84-1.394,1.258,1.258,0,0,1,.118-.047A4.236,4.236,0,0,1,1424.395,3182.347Z" transform="translate(-1414.88 -3177.192)" fill="#fefefe" stroke="#fff" stroke-width="0.5"/><path d="M1384.085,3247.377a4.359,4.359,0,0,1-.745-1.442,2.339,2.339,0,0,1-.11-.984.8.8,0,0,1,.888-.743.79.79,0,0,1,.836.875,3.623,3.623,0,0,1-.565,1.821C1384.3,3247.062,1384.193,3247.211,1384.085,3247.377Z" transform="translate(-1377.69 -3237.505)" fill="#fefefe" stroke="#fff" stroke-width="0.5"/><path d="M1379.754,3162.566l-.813-1.117-.8,1.1c-.154-.146-.318-.3-.475-.458a.146.146,0,0,1-.019-.126,6.689,6.689,0,0,1,.994-1.766c.092-.122.191-.24.3-.378.15.193.294.37.43.555a6.874,6.874,0,0,1,.872,1.587.141.141,0,0,1-.049.191C1380.039,3162.283,1379.9,3162.43,1379.754,3162.566Z" transform="translate(-1372.557 -3159.818)" fill="#fefefe" stroke="#fff" stroke-width="0.5"/><path d="M1331.7,3221.6a1.483,1.483,0,0,1-.789.127,3.574,3.574,0,0,1-2.618-1.533c-.167-.214-.3-.454-.458-.7a2.278,2.278,0,0,1,1.689.153.384.384,0,0,1,.125.167,3.641,3.641,0,0,0,1.618,1.606C1331.405,3221.49,1331.551,3221.541,1331.7,3221.6Z" transform="translate(-1326.71 -3214.671)" fill="#fefefe" stroke="#fff" stroke-width="0.5"/><path d="M1412.509,3221.61a3.381,3.381,0,0,0,1.395-.91,5.055,5.055,0,0,0,.608-.834.7.7,0,0,1,.4-.334,2.3,2.3,0,0,1,1.439-.044c-.118.195-.221.384-.343.56a4.071,4.071,0,0,1-1.484,1.325,2.718,2.718,0,0,1-1.69.328A2.528,2.528,0,0,1,1412.509,3221.61Z" transform="translate(-1404.658 -3214.662)" fill="#fefefe" stroke="#fff" stroke-width="0.5"/><path d="M1431.24,3242.776a2.293,2.293,0,0,0,1.314-.651.11.11,0,0,1,.074-.034,3.3,3.3,0,0,1,2.086.686.406.406,0,0,1,.044.046.241.241,0,0,1,.016.041c-.25.073-.5.15-.746.216a5.768,5.768,0,0,1-1.794.239,1.178,1.178,0,0,1-.762-.254A2.387,2.387,0,0,1,1431.24,3242.776Z" transform="translate(-1421.901 -3235.558)" fill="#fefefe" stroke="#fff" stroke-width="0.5"/><path d="M1317.176,3242.773a.608.608,0,0,1-.368.4,2.283,2.283,0,0,1-.6.142,5.489,5.489,0,0,1-1.794-.238c-.246-.066-.49-.141-.754-.217a1.85,1.85,0,0,1,.63-.44,3.889,3.889,0,0,1,1.489-.329.176.176,0,0,1,.122.042,2.145,2.145,0,0,0,1.109.6Z" transform="translate(-1313.656 -3235.56)" fill="#fefefe" stroke="#fff" stroke-width="0.5"/><path d="M1408.2,3249.445a1.381,1.381,0,0,0,.974.255.86.86,0,0,1,.736.374,3.567,3.567,0,0,1,.6,1.12.3.3,0,0,1,0,.065c-.182-.022-.363-.035-.54-.067a2.928,2.928,0,0,1-1.666-.885,1.481,1.481,0,0,1-.257-.405A.364.364,0,0,1,1408.2,3249.445Z" transform="translate(-1400.527 -3242.327)" fill="#fefefe" stroke="#fff" stroke-width="0.5"/><path d="M1351.124,3249.481a.4.4,0,0,1,.1.592,2.624,2.624,0,0,1-.414.467,3.084,3.084,0,0,1-1.945.742c-.017,0-.034,0-.066,0a4.188,4.188,0,0,1,.408-.88,1.7,1.7,0,0,1,.485-.538.727.727,0,0,1,.5-.131A1.3,1.3,0,0,0,1351.124,3249.481Z" transform="translate(-1346.009 -3242.36)" fill="#fefefe" stroke="#fff" stroke-width="0.5"/><path d="M1398.551,3218.473a1.444,1.444,0,0,0,1.32-1.2c.008-.034.032-.085.06-.093a2.879,2.879,0,0,0,1.1-.7,2.724,2.724,0,0,1,0,.414,2.09,2.09,0,0,1-1.261,1.71A1.271,1.271,0,0,1,1398.551,3218.473Z" transform="translate(-1391.809 -3211.976)" fill="#fefefe" stroke="#fff" stroke-width="0.5"/><path d="M1358.891,3216.96a7.6,7.6,0,0,0,.863.557.6.6,0,0,1,.359.417,1.351,1.351,0,0,0,1.211.983,1.158,1.158,0,0,1-.581.214,1.448,1.448,0,0,1-1.217-.511,2.256,2.256,0,0,1-.634-1.472C1358.887,3217.077,1358.891,3217.007,1358.891,3216.96Z" transform="translate(-1355.297 -3212.422)" fill="#fefefe" stroke="#fff" stroke-width="0.5"/><path d="M1367.776,3187.209c.2.167.372.3.534.451a4.64,4.64,0,0,1,.364.379.163.163,0,0,1,.032.141,7.112,7.112,0,0,0-.626,1.872,1.4,1.4,0,0,1-.359-.56,2.8,2.8,0,0,1-.114-1.437C1367.649,3187.784,1367.714,3187.516,1367.776,3187.209Z" transform="translate(-1363.283 -3185.034)" fill="#fefefe" stroke="#fff" stroke-width="0.5"/><path d="M1407.292,3189.94a6.84,6.84,0,0,0-.616-1.84c-.035-.072-.04-.122.019-.177.282-.271.564-.542.87-.838a4.069,4.069,0,0,1,.217,1.75A1.783,1.783,0,0,1,1407.292,3189.94Z" transform="translate(-1399.264 -3184.919)" fill="#fefefe" stroke="#fff" stroke-width="0.5"/></g><g transform="translate(0 10.448)"><path d="M776.531,3795.7v-15.13c-.777-.157-.774-.156-.677-.95.167-1.373.343-2.746.486-4.122.044-.426.219-.557.639-.557q10.6.015,21.194,0c.468,0,.6.185.641.608.146,1.392.321,2.78.5,4.169.093.736.1.734-.672.822v15.172c.119.013.266-.012.355.049.145.1.352.246.359.383a17.743,17.743,0,0,1,0,2c-.008.135-.224.279-.373.376-.078.051-.217.01-.328.01H776.5c-.708,0-.716-.009-.717-.725q0-.621,0-1.241C775.784,3795.813,775.784,3795.813,776.531,3795.7Zm14.919-15.168H777.193v8.6H791.45Zm6.514,13.007v-13h-5.847v13Zm-20.782,2.179h14.253V3789.8H777.182Zm-.8.641a8.335,8.335,0,0,1-.007.988c-.062.5.138.606.611.6,5.2-.017,10.4-.011,15.606-.011,1.909,0,3.818.005,5.727-.008.152,0,.428-.115.436-.2.043-.451.021-.908.021-1.377Zm21.6-2.172h-5.849v1.53h5.849Zm-18.826-18.614v4.3H781v-4.3Zm4.333,4.317v-4.316h-1.839v4.316Zm2.488,0v-4.316h-1.833v4.316Zm2.507-4.351c-.529,0-1,.015-1.476-.005-.317-.014-.411.109-.406.414.015,1.08.007,2.16.008,3.239,0,.231,0,.463,0,.688h1.874Zm7.513,4.35c0-1.39,0-2.735-.011-4.08a.359.359,0,0,0-.24-.256c-.533-.024-1.067-.012-1.606-.012v4.348Zm2.74,0c-.17-1.409-.33-2.765-.507-4.118a.337.337,0,0,0-.239-.219c-.454-.022-.909-.01-1.357-.01v4.347Zm-22.311,0H778.5v-4.342c-.466,0-.907-.012-1.346.011a.339.339,0,0,0-.234.226C776.746,3777.133,776.587,3778.487,776.419,3779.886Zm14.53,0v-4.317h-1.815v4.317Zm.678,0h1.857c0-1.391,0-2.755-.009-4.119a.29.29,0,0,0-.19-.209c-.548-.017-1.1-.01-1.658-.01Z" transform="translate(-775.784 -3774.939)" fill="#fefefe" stroke="#fff" stroke-width="0.5"/><path d="M825.943,3950.41c-.072.083-.134.219-.207.226a.546.546,0,0,1-.38-.1c-.4-.365-.773-.75-1.154-1.132-.358-.358-.727-.708-1.061-1.089-.085-.1-.052-.3-.073-.449.154.008.369-.046.453.035.766.734,1.511,1.491,2.258,2.245A1.5,1.5,0,0,1,825.943,3950.41Z" transform="translate(-820.408 -3938.125)" fill="#fefefe" stroke="#fff" stroke-width="0.5"/><path d="M819.406,3975.574c-.042.062-.082.186-.146.2a.444.444,0,0,1-.345-.043c-.4-.367-.783-.747-1.148-1.145a.4.4,0,0,1-.013-.37.338.338,0,0,1,.319-.073c.442.409.863.84,1.286,1.269C819.387,3975.44,819.385,3975.5,819.406,3975.574Z" transform="translate(-815.356 -3962.918)" fill="#fefefe" stroke="#fff" stroke-width="0.5"/><path d="M819,4059.994c0-.46.006-.92,0-1.38-.006-.332.115-.5.473-.489.809.014,1.618.011,2.427,0,.325,0,.464.141.462.456q0,1.427,0,2.856c0,.346-.167.477-.5.473-.793-.009-1.587-.011-2.38,0-.35,0-.486-.154-.48-.489C819.006,4060.946,819,4060.47,819,4059.994Zm2.718-1.239h-2.083v2.53h2.083Z" transform="translate(-816.565 -4042.192)" fill="#fefefe" stroke="#fff" stroke-width="0.5"/><path d="M900.236,4060.022c0,.477,0,.954,0,1.431,0,.314-.129.467-.456.464-.811-.008-1.622-.006-2.432,0-.322,0-.461-.151-.46-.466q0-1.431,0-2.862c0-.318.142-.46.464-.457.827.009,1.654.008,2.48,0,.284,0,.4.139.4.409Q900.235,4059.284,900.236,4060.022Zm-2.745-1.276c0,.8-.007,1.546.008,2.29,0,.094.115.266.18.267.643.021,1.287.013,1.92.013v-2.57Z" transform="translate(-890.074 -4042.199)" fill="#fefefe" stroke="#fff" stroke-width="0.5"/><path d="M980.641,4060.022c0,.477,0,.954,0,1.431,0,.314-.13.467-.456.464-.811-.008-1.622-.006-2.433,0-.322,0-.461-.151-.46-.466q0-1.431,0-2.862c0-.318.142-.46.465-.457.827.009,1.654.008,2.48,0,.284,0,.4.139.4.409Q980.64,4059.284,980.641,4060.022Zm-2.745-1.276c0,.8-.007,1.546.008,2.29,0,.094.115.266.18.267.643.021,1.287.013,1.919.013v-2.57Z" transform="translate(-965.955 -4042.199)" fill="#fefefe" stroke="#fff" stroke-width="0.5"/></g></g></svg>