<svg xmlns="http://www.w3.org/2000/svg" width="31.459" height="28.769" viewBox="0 0 31.459 28.769"><g transform="translate(0 0)"><g transform="translate(0 0)"><path d="M1280.163,2418.442l1.55-5.139c-.327-.017-.57-.041-.814-.042q-4.042,0-8.084,0a2.337,2.337,0,0,1-2.617-2.628q-.007-8.474,0-16.947a2.345,2.345,0,0,1,2.637-2.614q13.083,0,26.166,0a2.351,2.351,0,0,1,2.649,2.672q.006,8.44,0,16.877c0,1.771-.884,2.635-2.678,2.637q-3.971.008-7.942.006h-.9l1.543,5.177c.835,0,1.654,0,2.472,0,.492,0,.942.078.953.683s-.422.713-.923.713q-8.261,0-16.522,0c-.508,0-.924-.135-.909-.73.013-.555.421-.673.9-.67C1278.467,2418.445,1279.293,2418.442,1280.163,2418.442Zm20.136-10.934v-.672q0-6.521,0-13.043c0-1.047-.287-1.322-1.362-1.323q-13.008,0-26.015,0c-1.092,0-1.368.28-1.369,1.39q0,6.345,0,12.689v.963h1.069c.922,0,1.843,0,2.765,0a.687.687,0,1,1,.023,1.37c-.5.014-.992.007-1.489.007h-2.267a1.18,1.18,0,0,0-.086.236c-.007.5-.017.992-.013,1.488.007.962.322,1.281,1.269,1.281l18.217,0c2.67,0,5.34-.007,8.01.005.649,0,1.157-.19,1.224-.887.065-.673.014-1.357.014-2.126h-.967q-10.137,0-20.274,0c-.259,0-.574.069-.764-.051a1.105,1.105,0,0,1-.515-.711c-.01-.192.328-.445.561-.592.136-.086.368-.024.557-.024H1300.3Zm-10.063,10.9c-.491-1.649-.94-3.213-1.441-4.759a.809.809,0,0,0-.625-.375c-1.511-.031-3.023-.023-4.534,0-.194,0-.511.138-.556.28-.505,1.592-.969,3.2-1.458,4.851Z" transform="translate(-1270.195 -2391.071)" fill="#fefefe"/><path d="M1346.984,2490.588c-.17-.279-.49-.572-.466-.833.022-.242.449-.655.634-.623a1,1,0,0,1,.68.665c.033.238-.326.531-.512.8Z" transform="translate(-1332.084 -2470.587)" fill="#fefefe"/></g><g transform="translate(7.814 2.386)"><path d="M1380.388,3189.485a6.492,6.492,0,0,1,.915,1.326,4.6,4.6,0,0,1,.544,1.645,2.9,2.9,0,0,1-.017.76,1.048,1.048,0,0,1-.749.858,2.014,2.014,0,0,1-1.257.027,1.2,1.2,0,0,1-.9-1.189,4.15,4.15,0,0,1,.592-2.165c.217-.389.493-.745.745-1.114A1.793,1.793,0,0,1,1380.388,3189.485Z" transform="translate(-1372.614 -3186.617)" fill="#fefefe"/><path d="M1340.7,3183.131a5.1,5.1,0,0,1-1.551-4.481,6.567,6.567,0,0,1,1.388.887c.329.27.645.557.963.842a.183.183,0,0,1,.063.14,3.769,3.769,0,0,0,.046,1.794l-.812-.64A5.394,5.394,0,0,0,1340.7,3183.131Z" transform="translate(-1336.615 -3176.829)" fill="#fefefe"/><path d="M1424.564,3183.141c-.027-.465-.054-.945-.084-1.462l-.838.664-.03-.021c.025-.118.048-.236.073-.354a3.2,3.2,0,0,0,0-1.377.184.184,0,0,1,.033-.146,9.294,9.294,0,0,1,2.24-1.7,1.5,1.5,0,0,1,.144-.057A5.154,5.154,0,0,1,1424.564,3183.141Z" transform="translate(-1412.984 -3176.866)" fill="#fefefe"/><path d="M1384.275,3248.066a5.313,5.313,0,0,1-.907-1.756,2.846,2.846,0,0,1-.134-1.2.972.972,0,0,1,1.081-.9.961.961,0,0,1,1.018,1.066,4.408,4.408,0,0,1-.688,2.216C1384.534,3247.682,1384.406,3247.864,1384.275,3248.066Z" transform="translate(-1376.49 -3236.049)" fill="#fefefe"/><path d="M1380.214,3163.162l-.99-1.36-.976,1.338c-.187-.178-.388-.363-.579-.558a.176.176,0,0,1-.023-.154,8.142,8.142,0,0,1,1.21-2.149c.113-.149.233-.292.369-.461.182.235.358.451.523.675a8.366,8.366,0,0,1,1.062,1.931.172.172,0,0,1-.06.232C1380.561,3162.818,1380.387,3163,1380.214,3163.162Z" transform="translate(-1371.453 -3159.818)" fill="#fefefe"/><path d="M1332.541,3222.08a1.8,1.8,0,0,1-.96.156,4.351,4.351,0,0,1-3.187-1.867c-.2-.26-.364-.553-.558-.852a2.774,2.774,0,0,1,2.056.187.469.469,0,0,1,.153.2,4.431,4.431,0,0,0,1.969,1.955C1332.18,3221.944,1332.357,3222.005,1332.541,3222.08Z" transform="translate(-1326.465 -3213.643)" fill="#fefefe"/><path d="M1412.509,3222.092a4.119,4.119,0,0,0,1.7-1.108,6.152,6.152,0,0,0,.74-1.015.847.847,0,0,1,.492-.406,2.8,2.8,0,0,1,1.752-.053c-.144.236-.269.467-.417.682a4.956,4.956,0,0,1-1.807,1.613,3.309,3.309,0,0,1-2.057.4A3.089,3.089,0,0,1,1412.509,3222.092Z" transform="translate(-1402.953 -3213.634)" fill="#fefefe"/><path d="M1431.24,3242.925a2.791,2.791,0,0,0,1.6-.792.138.138,0,0,1,.091-.042,4.019,4.019,0,0,1,2.539.836.522.522,0,0,1,.054.056.357.357,0,0,1,.02.05c-.3.089-.6.183-.909.263a7.02,7.02,0,0,1-2.183.291,1.437,1.437,0,0,1-.927-.309A2.826,2.826,0,0,1,1431.24,3242.925Z" transform="translate(-1419.873 -3234.138)" fill="#fefefe"/><path d="M1317.941,3242.92a.74.74,0,0,1-.448.491,2.81,2.81,0,0,1-.736.173,6.66,6.66,0,0,1-2.183-.29c-.3-.08-.6-.172-.918-.264a2.248,2.248,0,0,1,.767-.536,4.726,4.726,0,0,1,1.812-.4.213.213,0,0,1,.148.05,2.607,2.607,0,0,0,1.349.73C1317.8,3242.89,1317.864,3242.9,1317.941,3242.92Z" transform="translate(-1313.656 -3234.141)" fill="#fefefe"/><path d="M1408.244,3249.444a1.677,1.677,0,0,0,1.185.311,1.048,1.048,0,0,1,.9.455,4.345,4.345,0,0,1,.732,1.364.358.358,0,0,1,0,.08c-.222-.027-.441-.043-.657-.081a3.564,3.564,0,0,1-2.027-1.077,1.8,1.8,0,0,1-.312-.493A.443.443,0,0,1,1408.244,3249.444Z" transform="translate(-1398.899 -3240.78)" fill="#fefefe"/><path d="M1351.628,3249.48a.491.491,0,0,1,.123.72,3.184,3.184,0,0,1-.5.569,3.756,3.756,0,0,1-2.367.9c-.02,0-.041,0-.08,0a5.09,5.09,0,0,1,.5-1.071,2.052,2.052,0,0,1,.59-.655.888.888,0,0,1,.6-.159A1.582,1.582,0,0,0,1351.628,3249.48Z" transform="translate(-1345.402 -3240.813)" fill="#fefefe"/><path d="M1398.551,3218.906a1.758,1.758,0,0,0,1.607-1.465c.01-.042.039-.1.072-.114a3.5,3.5,0,0,0,1.335-.851,3.323,3.323,0,0,1,0,.5,2.544,2.544,0,0,1-1.535,2.081A1.546,1.546,0,0,1,1398.551,3218.906Z" transform="translate(-1390.344 -3210.999)" fill="#fefefe"/><path d="M1358.891,3216.96a9.273,9.273,0,0,0,1.05.678.728.728,0,0,1,.437.508,1.644,1.644,0,0,0,1.474,1.2,1.419,1.419,0,0,1-.708.26,1.762,1.762,0,0,1-1.482-.623,2.743,2.743,0,0,1-.771-1.792C1358.886,3217.1,1358.891,3217.017,1358.891,3216.96Z" transform="translate(-1354.516 -3211.436)" fill="#fefefe"/><path d="M1367.822,3187.209c.242.2.453.368.65.549a5.694,5.694,0,0,1,.443.462.2.2,0,0,1,.039.171,8.657,8.657,0,0,0-.762,2.278,1.707,1.707,0,0,1-.437-.682,3.4,3.4,0,0,1-.138-1.749C1367.668,3187.908,1367.747,3187.583,1367.822,3187.209Z" transform="translate(-1362.353 -3184.561)" fill="#fefefe"/><path d="M1407.431,3190.56a8.326,8.326,0,0,0-.749-2.239c-.043-.088-.048-.147.023-.216.343-.329.686-.659,1.059-1.02a4.953,4.953,0,0,1,.265,2.129A2.171,2.171,0,0,1,1407.431,3190.56Z" transform="translate(-1397.66 -3184.448)" fill="#fefefe"/></g></g></svg>