<svg xmlns="http://www.w3.org/2000/svg" width="26.118" height="26.118" viewBox="0 0 26.118 26.118"><path d="M0,26.118,2.246,19.38a12.832,12.832,0,1,1,5.067,4.814Z" fill="#fff"/><path d="M28.068,22.6a9.3,9.3,0,0,0-2.778-2.4c-.494-.282-1.091-.313-1.373.189a11.32,11.32,0,0,1-.891.974,1.66,1.66,0,0,1-2.36-.234l-1.793-1.793-1.793-1.793a1.66,1.66,0,0,1-.234-2.361,11.319,11.319,0,0,1,.974-.891c.5-.282.471-.879.189-1.373a9.3,9.3,0,0,0-2.4-2.778,1.228,1.228,0,0,0-1.442.217l-.792.792c-2.511,2.511-1.275,5.346,1.237,7.858l2.3,2.3,2.3,2.3c2.511,2.511,5.346,3.748,7.858,1.237l.792-.792A1.228,1.228,0,0,0,28.068,22.6Z" transform="translate(-6.596 -5.497)" fill="#ad7047"/></svg>