<svg xmlns="http://www.w3.org/2000/svg" width="391" height="44.383" viewBox="0 0 391 44.383"><g transform="translate(-761 -825.22)"><g transform="translate(931 825.221)"><path d="M1384.333,3189.486a23.939,23.939,0,0,1,3.38,4.9,17,17,0,0,1,2.008,6.074,10.721,10.721,0,0,1-.064,2.806,3.873,3.873,0,0,1-2.767,3.169,7.445,7.445,0,0,1-4.641.1,4.44,4.44,0,0,1-3.32-4.393,15.339,15.339,0,0,1,2.185-8c.8-1.437,1.822-2.749,2.752-4.111A6.3,6.3,0,0,1,1384.333,3189.486Z" transform="translate(-1355.619 -3178.894)" fill="#d9b66e"/><path d="M1345.1,3195.2c-5.026-4.814-6.8-11.89-5.728-16.55a24.242,24.242,0,0,1,5.126,3.278c1.216,1,2.381,2.058,3.554,3.107a.68.68,0,0,1,.232.521,13.907,13.907,0,0,0,.168,6.627l-3-2.365A19.823,19.823,0,0,0,1345.1,3195.2Z" transform="translate(-1329.997 -3171.927)" fill="#d9b66e"/><path d="M1427.127,3195.128c-.1-1.717-.2-3.491-.309-5.4-1.13.894-2.113,1.671-3.1,2.452l-.108-.077q.135-.654.27-1.309a11.8,11.8,0,0,0-.014-5.085.677.677,0,0,1,.123-.541,34.377,34.377,0,0,1,8.274-6.269,5.353,5.353,0,0,1,.531-.211C1433.888,3184.749,1431.207,3191.261,1427.127,3195.128Z" transform="translate(-1384.353 -3171.952)" fill="#d9b66e"/><path d="M1387.131,3258.459a19.616,19.616,0,0,1-3.351-6.482,10.517,10.517,0,0,1-.494-4.423,3.59,3.59,0,0,1,3.994-3.34,3.551,3.551,0,0,1,3.76,3.935,16.284,16.284,0,0,1-2.542,8.187C1388.09,3257.042,1387.615,3257.711,1387.131,3258.459Z" transform="translate(-1358.378 -3214.076)" fill="#d9b66e"/><path d="M1387.15,3172.17l-3.656-5.024c-1.267,1.737-2.433,3.337-3.6,4.941-.691-.659-1.431-1.341-2.137-2.058a.661.661,0,0,1-.085-.571,30.154,30.154,0,0,1,4.47-7.94c.416-.55.862-1.077,1.363-1.7.674.868,1.322,1.666,1.932,2.491a30.953,30.953,0,0,1,3.922,7.135.636.636,0,0,1-.222.858C1388.433,3170.9,1387.791,3171.559,1387.15,3172.17Z" transform="translate(-1354.793 -3159.818)" fill="#d9b66e"/><path d="M1345.215,3229.293a6.662,6.662,0,0,1-3.546.572c-5.055-.354-8.769-3.045-11.771-6.9-.75-.961-1.346-2.042-2.061-3.143a10.241,10.241,0,0,1,7.593.687,1.742,1.742,0,0,1,.563.754,16.348,16.348,0,0,0,7.274,7.217C1343.882,3228.789,1344.535,3229.015,1345.215,3229.293Z" transform="translate(-1322.773 -3198.128)" fill="#d9b66e"/><path d="M1412.51,3229.359a15.225,15.225,0,0,0,6.27-4.09,22.714,22.714,0,0,0,2.735-3.75,3.147,3.147,0,0,1,1.818-1.5,10.381,10.381,0,0,1,6.471-.195c-.532.875-.994,1.727-1.543,2.52a18.325,18.325,0,0,1-6.676,5.956,12.231,12.231,0,0,1-7.6,1.477A11.979,11.979,0,0,1,1412.51,3229.359Z" transform="translate(-1377.214 -3198.122)" fill="#d9b66e"/><path d="M1431.24,3245.17a10.33,10.33,0,0,0,5.908-2.924.491.491,0,0,1,.334-.154c3.414.148,6.667.8,9.378,3.087a1.706,1.706,0,0,1,.2.207,1.04,1.04,0,0,1,.074.182c-1.123.328-2.232.675-3.355.972a25.9,25.9,0,0,1-8.064,1.074,5.3,5.3,0,0,1-3.425-1.142A10.594,10.594,0,0,1,1431.24,3245.17Z" transform="translate(-1389.257 -3212.716)" fill="#d9b66e"/><path d="M1329.482,3245.146a2.736,2.736,0,0,1-1.654,1.813,10.22,10.22,0,0,1-2.719.64,24.629,24.629,0,0,1-8.063-1.072c-1.107-.295-2.2-.633-3.389-.975a8.324,8.324,0,0,1,2.833-1.98,17.5,17.5,0,0,1,6.695-1.479.776.776,0,0,1,.546.188,9.649,9.649,0,0,0,4.985,2.693C1328.954,3245.034,1329.2,3245.083,1329.482,3245.146Z" transform="translate(-1313.656 -3212.718)" fill="#d9b66e"/><path d="M1408.843,3249.445a6.211,6.211,0,0,0,4.378,1.149,3.864,3.864,0,0,1,3.311,1.679,16.09,16.09,0,0,1,2.7,5.037,1.325,1.325,0,0,1,0,.293c-.819-.1-1.629-.157-2.426-.3a13.151,13.151,0,0,1-7.488-3.98,6.625,6.625,0,0,1-1.154-1.819A1.636,1.636,0,0,1,1408.843,3249.445Z" transform="translate(-1374.328 -3217.444)" fill="#d9b66e"/><path d="M1359.246,3249.481a1.816,1.816,0,0,1,.455,2.66,11.821,11.821,0,0,1-1.862,2.1,13.868,13.868,0,0,1-8.742,3.336c-.076,0-.151,0-.3,0a18.774,18.774,0,0,1,1.834-3.957,7.631,7.631,0,0,1,2.178-2.422,3.277,3.277,0,0,1,2.235-.585A5.856,5.856,0,0,0,1359.246,3249.481Z" transform="translate(-1336.252 -3217.467)" fill="#d9b66e"/><path d="M1398.551,3225.452a6.493,6.493,0,0,0,5.934-5.411c.035-.157.145-.385.268-.423a12.916,12.916,0,0,0,4.932-3.141,12.326,12.326,0,0,1-.012,1.863,9.4,9.4,0,0,1-5.671,7.689A5.707,5.707,0,0,1,1398.551,3225.452Z" transform="translate(-1368.239 -3196.247)" fill="#d9b66e"/><path d="M1358.9,3216.96a34.167,34.167,0,0,0,3.88,2.5,2.7,2.7,0,0,1,1.615,1.875,6.067,6.067,0,0,0,5.443,4.419,5.2,5.2,0,0,1-2.613.964,6.507,6.507,0,0,1-5.473-2.3,10.137,10.137,0,0,1-2.849-6.619C1358.878,3217.488,1358.9,3217.17,1358.9,3216.96Z" transform="translate(-1342.739 -3196.557)" fill="#d9b66e"/><path d="M1368.517,3187.209c.893.75,1.671,1.362,2.4,2.028a21.088,21.088,0,0,1,1.635,1.7.739.739,0,0,1,.145.635,31.929,31.929,0,0,0-2.813,8.416,6.3,6.3,0,0,1-1.616-2.52,12.574,12.574,0,0,1-.51-6.462C1367.946,3189.792,1368.238,3188.59,1368.517,3187.209Z" transform="translate(-1348.317 -3177.43)" fill="#d9b66e"/><path d="M1409.536,3199.923a30.761,30.761,0,0,0-2.768-8.271c-.16-.325-.178-.547.084-.8,1.27-1.218,2.535-2.441,3.914-3.771a18.314,18.314,0,0,1,.977,7.867A8.024,8.024,0,0,1,1409.536,3199.923Z" transform="translate(-1373.446 -3177.348)" fill="#d9b66e"/></g><line x2="148" transform="translate(1004 850)" fill="none" stroke="#d9b66e" stroke-width="1"/><line x2="148" transform="translate(761 850)" fill="none" stroke="#d9b66e" stroke-width="1"/></g></svg>