<svg xmlns="http://www.w3.org/2000/svg" width="24.095" height="33.31" viewBox="0 0 24.095 33.31"><g transform="translate(-1285.042 -18.645)"><g transform="translate(1285.292 17.65)"><g transform="translate(0 10.448)"><path d="M776.531,3795.7v-15.13c-.777-.157-.774-.156-.677-.95.167-1.373.343-2.746.486-4.122.044-.426.219-.557.639-.557q10.6.015,21.194,0c.468,0,.6.185.641.608.146,1.392.321,2.78.5,4.169.093.736.1.734-.672.822v15.172c.119.013.266-.012.355.049.145.1.352.246.359.383a17.743,17.743,0,0,1,0,2c-.008.135-.224.279-.373.376-.078.051-.217.01-.328.01H776.5c-.708,0-.716-.009-.717-.725q0-.621,0-1.241C775.784,3795.813,775.784,3795.813,776.531,3795.7Zm14.919-15.168H777.193v8.6H791.45Zm6.514,13.007v-13h-5.847v13Zm-20.782,2.179h14.253V3789.8H777.182Zm-.8.641a8.335,8.335,0,0,1-.007.988c-.062.5.138.606.611.6,5.2-.017,10.4-.011,15.606-.011,1.909,0,3.818.005,5.727-.008.152,0,.428-.115.436-.2.043-.451.021-.908.021-1.377Zm21.6-2.172h-5.849v1.53h5.849Zm-18.826-18.614v4.3H781v-4.3Zm4.333,4.317v-4.316h-1.839v4.316Zm2.488,0v-4.316h-1.833v4.316Zm2.507-4.351c-.529,0-1,.015-1.476-.005-.317-.014-.411.109-.406.414.015,1.08.007,2.16.008,3.239,0,.231,0,.463,0,.688h1.874Zm7.513,4.35c0-1.39,0-2.735-.011-4.08a.359.359,0,0,0-.24-.256c-.533-.024-1.067-.012-1.606-.012v4.348Zm2.74,0c-.17-1.409-.33-2.765-.507-4.118a.337.337,0,0,0-.239-.219c-.454-.022-.909-.01-1.357-.01v4.347Zm-22.311,0H778.5v-4.342c-.466,0-.907-.012-1.346.011a.339.339,0,0,0-.234.226C776.746,3777.133,776.587,3778.487,776.419,3779.886Zm14.53,0v-4.317h-1.815v4.317Zm.678,0h1.857c0-1.391,0-2.755-.009-4.119a.29.29,0,0,0-.19-.209c-.548-.017-1.1-.01-1.658-.01Z" transform="translate(-775.784 -3774.939)" fill="#fefefe" stroke="#fff" stroke-width="0.5"/><path d="M825.943,3950.41c-.072.083-.134.219-.207.226a.546.546,0,0,1-.38-.1c-.4-.365-.773-.75-1.154-1.132-.358-.358-.727-.708-1.061-1.089-.085-.1-.052-.3-.073-.449.154.008.369-.046.453.035.766.734,1.511,1.491,2.258,2.245A1.5,1.5,0,0,1,825.943,3950.41Z" transform="translate(-820.408 -3938.125)" fill="#fefefe" stroke="#fff" stroke-width="0.5"/><path d="M819.406,3975.574c-.042.062-.082.186-.146.2a.444.444,0,0,1-.345-.043c-.4-.367-.783-.747-1.148-1.145a.4.4,0,0,1-.013-.37.338.338,0,0,1,.319-.073c.442.409.863.84,1.286,1.269C819.387,3975.44,819.385,3975.5,819.406,3975.574Z" transform="translate(-815.356 -3962.918)" fill="#fefefe" stroke="#fff" stroke-width="0.5"/><path d="M819,4059.994c0-.46.006-.92,0-1.38-.006-.332.115-.5.473-.489.809.014,1.618.011,2.427,0,.325,0,.464.141.462.456q0,1.427,0,2.856c0,.346-.167.477-.5.473-.793-.009-1.587-.011-2.38,0-.35,0-.486-.154-.48-.489C819.006,4060.946,819,4060.47,819,4059.994Zm2.718-1.239h-2.083v2.53h2.083Z" transform="translate(-816.565 -4042.192)" fill="#fefefe" stroke="#fff" stroke-width="0.5"/><path d="M900.236,4060.022c0,.477,0,.954,0,1.431,0,.314-.129.467-.456.464-.811-.008-1.622-.006-2.432,0-.322,0-.461-.151-.46-.466q0-1.431,0-2.862c0-.318.142-.46.464-.457.827.009,1.654.008,2.48,0,.284,0,.4.139.4.409Q900.235,4059.284,900.236,4060.022Zm-2.745-1.276c0,.8-.007,1.546.008,2.29,0,.094.115.266.18.267.643.021,1.287.013,1.92.013v-2.57Z" transform="translate(-890.074 -4042.199)" fill="#fefefe" stroke="#fff" stroke-width="0.5"/><path d="M980.641,4060.022c0,.477,0,.954,0,1.431,0,.314-.13.467-.456.464-.811-.008-1.622-.006-2.433,0-.322,0-.461-.151-.46-.466q0-1.431,0-2.862c0-.318.142-.46.465-.457.827.009,1.654.008,2.48,0,.284,0,.4.139.4.409Q980.64,4059.284,980.641,4060.022Zm-2.745-1.276c0,.8-.007,1.546.008,2.29,0,.094.115.266.18.267.643.021,1.287.013,1.919.013v-2.57Z" transform="translate(-965.955 -4042.199)" fill="#fefefe" stroke="#fff" stroke-width="0.5"/></g></g><g transform="translate(1944.471 -207.948)"><path d="M-643.058,226.593v9.342h-9.349v-.166q0-4.485,0-8.971c0-.2,0-.2.207-.2h9.142Zm-8.731.617v8.124h8.121V227.21Z" fill="#fff"/><path d="M-583.291,273.278V274.8h-5.4v-6.742h5.4v1.525h-3.488v1.073h3.493V272.2h-3.493v1.082Z" transform="translate(-61.704 -40.16)" fill="#fff"/></g></g></svg>