<svg xmlns="http://www.w3.org/2000/svg" width="31.152" height="23.217" viewBox="0 0 31.152 23.217"><path d="M-42,987.127V986.7a7.269,7.269,0,0,1,.872-.478c1.52-.589,3.042-1.171,4.573-1.728q5.547-2.018,11.1-4.011,4.911-1.773,9.821-3.548,2.143-.771,4.3-1.508a1.407,1.407,0,0,1,.487.016v.122c-.168.286-.331.575-.5.859q-2.17,3.583-4.343,7.164-4.109,6.773-8.226,13.541c-.322.527-.734,1-1.1,1.5h-.365c-.194-.121-.392-.238-.582-.365-1.068-.716-2.138-1.428-3.2-2.156a.425.425,0,0,0-.561,0q-.965.66-1.949,1.291c-.553.357-1.11.707-1.675,1.044a.372.372,0,0,1-.577-.216,2.214,2.214,0,0,1-.034-.419c-.011-1.558-.015-3.117-.034-4.675a.478.478,0,0,1,.225-.451c.421-.3.829-.614,1.243-.923l15.36-11.46c.129-.1.251-.2.376-.3a.473.473,0,0,0-.24.066c-3.224,1.7-6.443,3.409-9.673,5.1-3.408,1.782-6.827,3.543-10.236,5.323a.412.412,0,0,1-.491-.028c-1.21-.832-2.43-1.648-3.63-2.493A10.334,10.334,0,0,1-42,987.127Z" transform="translate(42 -975.41)" fill="#fff"/></svg>