<svg xmlns="http://www.w3.org/2000/svg" width="26.92" height="26.92" viewBox="0 0 26.92 26.92"><g transform="translate(0 0)"><g transform="translate(0)"><path d="M9.989,0a9.962,9.962,0,0,1,5.318,1.533.526.526,0,1,1-.561.89,8.937,8.937,0,1,0,2.81,2.81.526.526,0,0,1,.89-.561,9.98,9.98,0,0,1-.37,11.175l.9.9a1.58,1.58,0,0,1,1.795.308l5.688,5.688a1.579,1.579,0,0,1,0,2.231l-1.487,1.487a1.58,1.58,0,0,1-2.231,0l-5.688-5.688a1.584,1.584,0,0,1-.308-1.8l-.9-.9A9.988,9.988,0,1,1,9.989,0ZM17.8,20.033l5.688,5.688a.529.529,0,0,0,.744,0l1.487-1.487a.526.526,0,0,0,0-.744L20.027,17.8a.526.526,0,0,0-.743,0L17.8,19.289a.529.529,0,0,0,0,.744Zm-.372-1.859.744-.744-.757-.757a10.08,10.08,0,0,1-.744.744Z" transform="translate(0 -0.005)" fill="#fefefe"/><path d="M173.672,51.856a.526.526,0,0,1-.713-.212,7.883,7.883,0,1,1,3.186,3.186.526.526,0,1,1,.5-.925,6.831,6.831,0,1,0-2.763-2.762A.526.526,0,0,1,173.672,51.856Z" transform="translate(-169.908 -37.902)" fill="#fefefe"/><path d="M185.257,53.773a.526.526,0,1,1,.354-.915h0a.526.526,0,0,1-.354.915Z" transform="translate(-168.576 -49.95)" fill="#fefefe"/><path d="M411.53,280.049a.526.526,0,1,1,.337-.93h0a.526.526,0,0,1-.337.929Z" transform="translate(-406.745 -264.329)" fill="#fefefe"/></g></g><g transform="translate(5.446 6.036)"><path d="M1379.8,3189.485a3.914,3.914,0,0,1,.546.791,2.755,2.755,0,0,1,.324.981,1.723,1.723,0,0,1-.011.453.624.624,0,0,1-.447.512,1.205,1.205,0,0,1-.749.016.718.718,0,0,1-.536-.709,2.484,2.484,0,0,1,.353-1.292c.129-.231.294-.443.444-.664A1.012,1.012,0,0,1,1379.8,3189.485Z" transform="translate(-1375.16 -3187.775)" fill="#fefefe"/><path d="M1340.045,3181.322a3.042,3.042,0,0,1-.924-2.672,3.94,3.94,0,0,1,.827.529c.2.162.385.332.574.5a.109.109,0,0,1,.037.083,2.249,2.249,0,0,0,.027,1.07l-.484-.381A3.213,3.213,0,0,0,1340.045,3181.322Z" transform="translate(-1337.607 -3177.564)" fill="#fefefe"/><path d="M1424.181,3181.345c-.016-.277-.033-.564-.05-.872l-.5.4-.018-.012c.015-.071.029-.141.044-.211a1.905,1.905,0,0,0,0-.821.112.112,0,0,1,.02-.088,5.568,5.568,0,0,1,1.336-1.012.873.873,0,0,1,.086-.033A3.075,3.075,0,0,1,1424.181,3181.345Z" transform="translate(-1417.275 -3177.603)" fill="#fefefe"/><path d="M1383.846,3246.508a3.158,3.158,0,0,1-.541-1.046,1.7,1.7,0,0,1-.08-.714.581.581,0,0,1,.645-.54.573.573,0,0,1,.607.636,2.623,2.623,0,0,1-.41,1.322C1384,3246.279,1383.925,3246.387,1383.846,3246.508Z" transform="translate(-1379.204 -3239.343)" fill="#fefefe"/><path d="M1379.174,3161.813l-.591-.812-.582.8c-.111-.106-.231-.217-.345-.332a.108.108,0,0,1-.014-.093,4.869,4.869,0,0,1,.721-1.281c.067-.089.139-.174.22-.274.108.14.213.269.311.4a5,5,0,0,1,.633,1.152.1.1,0,0,1-.036.139C1379.381,3161.607,1379.278,3161.714,1379.174,3161.813Z" transform="translate(-1373.95 -3159.818)" fill="#fefefe"/><path d="M1330.642,3221a1.08,1.08,0,0,1-.573.092,2.591,2.591,0,0,1-1.9-1.113c-.121-.156-.218-.331-.333-.508a1.657,1.657,0,0,1,1.226.111.276.276,0,0,1,.091.122,2.64,2.64,0,0,0,1.175,1.165C1330.427,3220.919,1330.532,3220.956,1330.642,3221Z" transform="translate(-1327.019 -3215.969)" fill="#fefefe"/><path d="M1412.509,3221a2.454,2.454,0,0,0,1.012-.661,3.6,3.6,0,0,0,.441-.6.507.507,0,0,1,.293-.243,1.676,1.676,0,0,1,1.045-.032c-.086.141-.161.279-.249.407a2.963,2.963,0,0,1-1.078.962,1.641,1.641,0,0,1-1.465.171Z" transform="translate(-1406.811 -3215.961)" fill="#fefefe"/><path d="M1431.24,3242.589a1.667,1.667,0,0,0,.954-.472.078.078,0,0,1,.054-.024,2.394,2.394,0,0,1,1.514.5.246.246,0,0,1,.032.034s0,.011.012.029c-.181.053-.36.109-.541.157a4.207,4.207,0,0,1-1.3.174.855.855,0,0,1-.553-.185A1.714,1.714,0,0,1,1431.24,3242.589Z" transform="translate(-1424.462 -3237.35)" fill="#fefefe"/><path d="M1316.211,3242.587a.443.443,0,0,1-.267.294,1.644,1.644,0,0,1-.439.1,3.968,3.968,0,0,1-1.3-.173c-.179-.047-.356-.1-.547-.157a1.333,1.333,0,0,1,.458-.32,2.8,2.8,0,0,1,1.081-.239.123.123,0,0,1,.088.03,1.554,1.554,0,0,0,.8.435Z" transform="translate(-1313.656 -3237.352)" fill="#fefefe"/><path d="M1408.154,3249.444a1,1,0,0,0,.707.186.625.625,0,0,1,.534.271,2.6,2.6,0,0,1,.437.813.257.257,0,0,1,0,.048c-.132-.016-.263-.025-.392-.049a2.122,2.122,0,0,1-1.209-.643,1.047,1.047,0,0,1-.186-.293A.265.265,0,0,1,1408.154,3249.444Z" transform="translate(-1402.582 -3244.278)" fill="#fefefe"/><path d="M1350.487,3249.481a.293.293,0,0,1,.073.43,1.937,1.937,0,0,1-.3.339,2.236,2.236,0,0,1-1.411.538h-.048a3.049,3.049,0,0,1,.3-.638,1.231,1.231,0,0,1,.352-.391.53.53,0,0,1,.361-.094A.943.943,0,0,0,1350.487,3249.481Z" transform="translate(-1346.774 -3244.312)" fill="#fefefe"/><path d="M1398.551,3217.926a1.05,1.05,0,0,0,.958-.874c.005-.026.023-.063.043-.069a2.092,2.092,0,0,0,.8-.507,1.936,1.936,0,0,1,0,.3,1.518,1.518,0,0,1-.915,1.242A.922.922,0,0,1,1398.551,3217.926Z" transform="translate(-1393.657 -3213.21)" fill="#fefefe"/><path d="M1358.89,3216.96a5.675,5.675,0,0,0,.626.405.431.431,0,0,1,.261.3.98.98,0,0,0,.879.714.845.845,0,0,1-.422.156,1.051,1.051,0,0,1-.883-.371,1.636,1.636,0,0,1-.46-1.069C1358.887,3217.046,1358.89,3216.994,1358.89,3216.96Z" transform="translate(-1356.282 -3213.666)" fill="#fefefe"/><path d="M1367.718,3187.209c.144.121.27.221.388.327a3.645,3.645,0,0,1,.264.275.118.118,0,0,1,.023.1,5.167,5.167,0,0,0-.454,1.359,1.01,1.01,0,0,1-.261-.407,2.034,2.034,0,0,1-.082-1.043C1367.626,3187.626,1367.673,3187.432,1367.718,3187.209Z" transform="translate(-1364.457 -3185.63)" fill="#fefefe"/><path d="M1407.116,3189.157a4.956,4.956,0,0,0-.447-1.335c-.026-.053-.029-.088.014-.129l.632-.609a2.962,2.962,0,0,1,.158,1.271A1.3,1.3,0,0,1,1407.116,3189.157Z" transform="translate(-1401.289 -3185.513)" fill="#fefefe"/></g></svg>