<svg xmlns="http://www.w3.org/2000/svg" width="17.549" height="17.55" viewBox="0 0 17.549 17.55"><path d="M33.884,6.639l3.5-3.5a1.254,1.254,0,0,0-1.774-1.774L30.33,6.639Z" transform="translate(-20.825 -0.998)" fill="#006442"/><path d="M21.655,54.47a.47.47,0,0,0-.47-.47H11.47a.47.47,0,0,0,0,.94h9.715A.47.47,0,0,0,21.655,54.47Z" transform="translate(-7.553 -37.39)" fill="#006442"/><path d="M0,10.459a.47.47,0,0,0,.47.47H13.789a.313.313,0,1,1,0,.627H1.254v2.194A6.581,6.581,0,0,0,5.036,19.7h7.477A6.581,6.581,0,0,0,16.3,13.749V11.556H15.042a.313.313,0,1,1,0-.627h2.037a.47.47,0,1,0,0-.94H6.268a6.876,6.876,0,0,0-.774-2.93q2.4.865,3.319-1.611a.313.313,0,0,0-.248-.426,4.387,4.387,0,0,0-2.234.213,3.213,3.213,0,0,0-1.316,1.62,3.851,3.851,0,0,0-1.275-.248,1.88,1.88,0,0,0-.768.147A4.585,4.585,0,0,0,1.31,8.322a.313.313,0,0,0,.141.476A2.334,2.334,0,0,0,4.879,7.272a6.227,6.227,0,0,1,.762,2.717H.47A.47.47,0,0,0,0,10.459Zm9.166,8.48a.627.627,0,0,1-.783,0C5.327,16.451,4.7,15.9,4.7,14.483A2.287,2.287,0,0,1,8.775,13.01a2.287,2.287,0,0,1,4.074,1.473C12.849,15.887,12.222,16.448,9.166,18.939Z" transform="translate(0 -3.72)" fill="#006442"/></svg>