<svg xmlns="http://www.w3.org/2000/svg" width="30.031" height="35.251" viewBox="0 0 30.031 35.251"><g transform="translate(0 0)"><g transform="translate(0.385)"><path d="M1381.694,3189.485a12.271,12.271,0,0,1,1.732,2.509,8.713,8.713,0,0,1,1.029,3.112,5.493,5.493,0,0,1-.033,1.437,1.983,1.983,0,0,1-1.417,1.623,3.812,3.812,0,0,1-2.378.051,2.274,2.274,0,0,1-1.7-2.25,7.857,7.857,0,0,1,1.119-4.1c.41-.736.933-1.408,1.41-2.106A3.256,3.256,0,0,1,1381.694,3189.485Z" transform="translate(-1366.986 -3184.06)" fill="#fefefe"/><path d="M1342.16,3187.128a9.651,9.651,0,0,1-2.934-8.478,12.421,12.421,0,0,1,2.626,1.679c.623.511,1.22,1.054,1.821,1.592a.346.346,0,0,1,.119.266,7.124,7.124,0,0,0,.086,3.4l-1.536-1.211A10.156,10.156,0,0,0,1342.16,3187.128Z" transform="translate(-1334.423 -3175.206)" fill="#fefefe"/><path d="M1425.413,3187.111c-.051-.88-.1-1.788-.159-2.765l-1.586,1.256-.055-.039q.069-.335.138-.67a6.05,6.05,0,0,0-.007-2.605.347.347,0,0,1,.063-.277,17.605,17.605,0,0,1,4.239-3.211,2.667,2.667,0,0,1,.272-.108A9.751,9.751,0,0,1,1425.413,3187.111Z" transform="translate(-1403.502 -3175.239)" fill="#fefefe"/><path d="M1385.221,3251.508a10.047,10.047,0,0,1-1.716-3.321,5.387,5.387,0,0,1-.253-2.266,1.839,1.839,0,0,1,2.046-1.711,1.818,1.818,0,0,1,1.926,2.016,8.338,8.338,0,0,1-1.3,4.193C1385.712,3250.782,1385.469,3251.125,1385.221,3251.508Z" transform="translate(-1370.492 -3228.773)" fill="#fefefe"/><path d="M1382.511,3166.145l-1.873-2.574-1.846,2.531c-.354-.337-.733-.687-1.095-1.054a.338.338,0,0,1-.044-.292,15.443,15.443,0,0,1,2.29-4.068c.213-.281.441-.551.7-.87.345.445.677.853.99,1.276a15.846,15.846,0,0,1,2.009,3.655.325.325,0,0,1-.113.439C1383.168,3165.494,1382.839,3165.833,1382.511,3166.145Z" transform="translate(-1365.936 -3159.818)" fill="#fefefe"/><path d="M1336.738,3224.469a3.414,3.414,0,0,1-1.816.293,8.228,8.228,0,0,1-6.03-3.532c-.384-.492-.689-1.046-1.056-1.61a5.243,5.243,0,0,1,3.889.352.891.891,0,0,1,.288.386,8.375,8.375,0,0,0,3.726,3.7C1336.056,3224.211,1336.39,3224.326,1336.738,3224.469Z" transform="translate(-1325.243 -3208.505)" fill="#fefefe"/><path d="M1412.509,3224.5a7.8,7.8,0,0,0,3.212-2.1,11.636,11.636,0,0,0,1.4-1.921,1.612,1.612,0,0,1,.931-.771,5.318,5.318,0,0,1,3.315-.1c-.273.448-.509.885-.79,1.291a9.389,9.389,0,0,1-3.419,3.051,6.265,6.265,0,0,1-3.892.756A6.111,6.111,0,0,1,1412.509,3224.5Z" transform="translate(-1394.429 -3208.497)" fill="#fefefe"/><path d="M1431.24,3243.668a5.29,5.29,0,0,0,3.026-1.5.253.253,0,0,1,.171-.079,7.6,7.6,0,0,1,4.8,1.582.836.836,0,0,1,.1.106.5.5,0,0,1,.038.093c-.575.168-1.143.346-1.719.5a13.265,13.265,0,0,1-4.131.55,2.712,2.712,0,0,1-1.754-.585A5.443,5.443,0,0,1,1431.24,3243.668Z" transform="translate(-1409.734 -3227.043)" fill="#fefefe"/><path d="M1321.763,3243.658a1.4,1.4,0,0,1-.847.929,5.23,5.23,0,0,1-1.393.327,12.6,12.6,0,0,1-4.13-.549c-.567-.151-1.129-.324-1.736-.5a4.256,4.256,0,0,1,1.452-1.014,8.956,8.956,0,0,1,3.429-.758.4.4,0,0,1,.28.1,4.941,4.941,0,0,0,2.554,1.38C1321.493,3243.6,1321.616,3243.625,1321.763,3243.658Z" transform="translate(-1313.656 -3227.046)" fill="#fefefe"/><path d="M1408.442,3249.444a3.179,3.179,0,0,0,2.242.588,1.98,1.98,0,0,1,1.7.86,8.243,8.243,0,0,1,1.385,2.58.688.688,0,0,1,0,.15c-.419-.05-.834-.081-1.243-.153a6.737,6.737,0,0,1-3.836-2.039,3.386,3.386,0,0,1-.591-.932A.838.838,0,0,1,1408.442,3249.444Z" transform="translate(-1390.762 -3233.052)" fill="#fefefe"/><path d="M1354.151,3249.48a.93.93,0,0,1,.233,1.363,6.06,6.06,0,0,1-.954,1.076,7.1,7.1,0,0,1-4.479,1.709c-.039,0-.077,0-.152,0a9.635,9.635,0,0,1,.939-2.027,3.913,3.913,0,0,1,1.116-1.241,1.679,1.679,0,0,1,1.145-.3A3,3,0,0,0,1354.151,3249.48Z" transform="translate(-1342.372 -3233.081)" fill="#fefefe"/><path d="M1398.551,3221.074a3.326,3.326,0,0,0,3.04-2.772c.018-.081.074-.2.137-.217a6.619,6.619,0,0,0,2.526-1.609,6.32,6.32,0,0,1-.006.954,4.813,4.813,0,0,1-2.9,3.938A2.923,2.923,0,0,1,1398.551,3221.074Z" transform="translate(-1383.024 -3206.114)" fill="#fefefe"/><path d="M1358.893,3216.96a17.568,17.568,0,0,0,1.987,1.282,1.381,1.381,0,0,1,.827.96,3.108,3.108,0,0,0,2.788,2.264,2.668,2.668,0,0,1-1.339.494,3.335,3.335,0,0,1-2.8-1.178,5.192,5.192,0,0,1-1.459-3.391C1358.884,3217.23,1358.893,3217.067,1358.893,3216.96Z" transform="translate(-1350.616 -3206.509)" fill="#fefefe"/><path d="M1368.052,3187.209c.457.385.856.7,1.23,1.039a10.874,10.874,0,0,1,.837.873.378.378,0,0,1,.074.325,16.357,16.357,0,0,0-1.441,4.311,3.221,3.221,0,0,1-.828-1.291,6.438,6.438,0,0,1-.261-3.31C1367.76,3188.532,1367.91,3187.916,1368.052,3187.209Z" transform="translate(-1357.705 -3182.199)" fill="#fefefe"/><path d="M1408.128,3193.661a15.748,15.748,0,0,0-1.418-4.237c-.082-.167-.091-.28.043-.409.651-.624,1.3-1.25,2-1.931a9.381,9.381,0,0,1,.5,4.029A4.109,4.109,0,0,1,1408.128,3193.661Z" transform="translate(-1389.641 -3182.097)" fill="#fefefe"/></g><path d="M14.854,210.007a7.649,7.649,0,0,1-3.047-.629l-4.611-2a17.485,17.485,0,0,0-5.242-1.366l-1.514-.151A.487.487,0,0,1,0,205.37v-4.75a.486.486,0,0,1,.1-.292c.113-.151,2.827-3.7,6.973-2.774a17.606,17.606,0,0,1,5.373,2.21,5.425,5.425,0,0,0,2.865.8h4.611a2.215,2.215,0,0,1,1.884,1.051l3.971-4.575a4.213,4.213,0,0,1,3.348-1.658h.3a.487.487,0,0,1,.446.683l-3.592,8.163A6.4,6.4,0,0,1,22,207.837l-.632.158-3.676,1.47a7.646,7.646,0,0,1-2.836.542ZM.975,204.929l1.075.108a18.469,18.469,0,0,1,5.534,1.442l4.611,2a6.7,6.7,0,0,0,5.133.076l3.706-1.482a.5.5,0,0,1,.063-.02l.664-.166a5.417,5.417,0,0,0,3.621-3.054l3.276-7.445a3.258,3.258,0,0,0-2.125,1.261l-4.4,5.07c0,.019,0,.038,0,.057a2.217,2.217,0,0,1-2.215,2.215H13.486a7.756,7.756,0,0,0-2.456.4l-.179-.455-.151-.463.025-.008a8.724,8.724,0,0,1,2.762-.448H19.92a1.24,1.24,0,1,0,0-2.48H15.309a6.4,6.4,0,0,1-3.379-.948,16.631,16.631,0,0,0-5.071-2.087c-3.139-.7-5.4,1.713-5.884,2.288v4.136Zm0,0" transform="translate(0 -174.755)" fill="#fefefe"/></g></svg>