<svg xmlns="http://www.w3.org/2000/svg" width="32.256" height="29.681" viewBox="0 0 32.256 29.681"><path d="M-457.89,660.86V659.4c.044-.13.1-.257.13-.39a4.468,4.468,0,0,1,2.948-3.464,1.41,1.41,0,0,0,.991-1.044c2.174-6.26,7.992-10.09,13.9-9.036,4.914.877,8.319,3.993,10.215,9.118a1.225,1.225,0,0,0,.866.893,4.386,4.386,0,0,1,2.936,3.113c.113.358.182.734.27,1.1v.873a2.044,2.044,0,0,0-.109.335,4.681,4.681,0,0,1-3.518,4.047,1.031,1.031,0,0,0-.64.536,13.7,13.7,0,0,1-7.113,7.658c-.171.078-.412.191-.459.348a2.344,2.344,0,0,1-1.481,1.485h-.784a2.33,2.33,0,0,1-1.44-1.528,2.32,2.32,0,0,1,.939-2.519,9.166,9.166,0,0,1-5.3-.761,9.8,9.8,0,0,1-4.214-3.767,11.553,11.553,0,0,1-1.758-5.6c-.32-5.639,3.244-10.531,8.2-11.41s9.66,2.536,10.956,7.951a11.56,11.56,0,0,1-1,8.265,9.838,9.838,0,0,1-5.877,5.044c.421.255.861.547,1.323.787a.858.858,0,0,0,.645.117c4.749-2.121,7.753-8.147,6.893-13.785-1.128-7.389-7.3-12.1-13.871-10.586-5.721,1.32-9.8,7.7-8.966,14.074.158,1.207.469,2.39.72,3.633a3.809,3.809,0,0,1-4.194-1.434A13.463,13.463,0,0,1-457.89,660.86Zm16.156,5.933a4.868,4.868,0,0,0,3.409-1.623.9.9,0,0,0,.061-1.282.681.681,0,0,0-1.144.052,3.1,3.1,0,0,1-4.729.005c-.345-.4-.772-.493-1.144-.059a.916.916,0,0,0,.1,1.332A4.782,4.782,0,0,0-441.734,666.792Z" transform="translate(457.89 -645.296)" fill="#fff"/></svg>