<svg xmlns="http://www.w3.org/2000/svg" width="65.08" height="65.082" viewBox="0 0 65.08 65.082"><g transform="translate(0 0)"><path d="M43.509,21.919,56.478,8.938A4.651,4.651,0,0,0,49.9,2.36L30.33,21.919Z" transform="translate(4.917 -0.998)" fill="#006442"/><path d="M50.513,55.743A1.743,1.743,0,0,0,48.77,54H12.743a1.743,1.743,0,1,0,0,3.486H48.77A1.743,1.743,0,0,0,50.513,55.743Z" transform="translate(1.784 7.596)" fill="#006442"/><path d="M0,25.343a1.743,1.743,0,0,0,1.743,1.743H51.134a1.162,1.162,0,1,1,0,2.324H4.649v8.135A24.4,24.4,0,0,0,18.676,59.627H46.4A24.4,24.4,0,0,0,60.431,37.546V29.411H55.783a1.162,1.162,0,1,1,0-2.324h7.554a1.743,1.743,0,1,0,0-3.486H23.243a25.5,25.5,0,0,0-2.87-10.866q8.89,3.208,12.307-5.973a1.162,1.162,0,0,0-.918-1.581,16.27,16.27,0,0,0-8.286.79c-3.138,1.36-4.881,6.008-4.881,6.008a14.283,14.283,0,0,0-4.73-.918,6.973,6.973,0,0,0-2.847.546,17,17,0,0,0-6.159,5.811,1.162,1.162,0,0,0,.523,1.766c6.066,2.417,10.355.511,12.714-5.66A23.092,23.092,0,0,1,20.918,23.6H1.743A1.743,1.743,0,0,0,0,25.343ZM33.993,56.791a2.324,2.324,0,0,1-2.905,0C19.756,47.564,17.432,45.507,17.432,40.265c0-9.367,10.541-10.773,15.108-5.462,4.567-5.311,15.108-3.893,15.108,5.462C47.648,45.472,45.323,47.552,33.993,56.791Z" transform="translate(0 -0.355)" fill="#006442"/></g></svg>